<svg width="16" height="16" viewBox="0 0 16 16" fill="none" xmlns="http://www.w3.org/2000/svg">
<g clip-path="url(#clip0_2466_324)">
<path d="M10.3525 6.87508H10.3245V4.81907C10.3245 4.54077 10.13 4.30834 9.86961 4.2491V2.10246C9.86961 1.89446 9.75919 1.70211 9.57957 1.59724L6.98027 0.0796779C6.79932 -0.0259592 6.57574 -0.0267615 6.39402 0.0775384C6.21233 0.181872 6.10027 0.375361 6.10027 0.584897V4.25689C5.8553 4.32672 5.67572 4.5517 5.67572 4.81907V6.87508H5.64764C5.32454 6.87508 5.06262 7.137 5.06262 7.4601V15.4149C5.06262 15.738 5.32454 15.9999 5.64764 15.9999H10.3524C10.6755 15.9999 10.9374 15.738 10.9374 15.4149V7.4601C10.9375 7.137 10.6756 6.87508 10.3525 6.87508ZM8.69958 2.43836V4.23406H7.2703V1.60389L8.69958 2.43836ZM6.84578 5.40409H9.15442V6.87508H6.84578V5.40409ZM9.76745 14.8299H6.23269V8.04511H9.76745V14.8299Z" fill="white"/>
</g>
<defs>
<clipPath id="clip0_2466_324">
<rect width="16" height="16" fill="white"/>
</clipPath>
</defs>
</svg>
