<svg width="16" height="16" viewBox="0 0 16 16" fill="none" xmlns="http://www.w3.org/2000/svg">
<g clip-path="url(#clip0_2466_142)">
<path d="M13.9231 8.45773H12.8175L12.8759 7.23176C12.8825 7.09282 12.8319 6.95719 12.736 6.85656C12.64 6.75594 12.5069 6.69897 12.3679 6.69897H1.17866C1.03955 6.69897 0.906545 6.75594 0.810584 6.85656C0.714623 6.95727 0.664014 7.09282 0.670626 7.23176L0.896457 11.9691C0.952237 13.1398 1.66932 14.1249 2.67683 14.5724H0.508628C0.227781 14.5724 0 14.8002 0 15.081C0 15.3618 0.227781 15.5896 0.508628 15.5896H13.1096C13.3905 15.5896 13.6183 15.3618 13.6183 15.081C13.6183 14.8002 13.3905 14.5724 13.1096 14.5724H10.8698C11.6865 14.2095 12.3118 13.4935 12.5491 12.6115H13.9231C15.0683 12.6115 16 11.6798 16 10.5346C16 9.38945 15.0683 8.45773 13.9231 8.45773ZM9.64876 13.8137H3.89787C2.83518 13.8137 1.96314 12.9821 1.91253 11.9206L1.71213 7.71606H11.8344L11.6341 11.9206C11.5835 12.9821 10.7115 13.8137 9.64876 13.8137ZM13.9231 11.5943H12.6681L12.7691 9.47388C12.7767 9.47422 12.7841 9.47498 12.7917 9.47498H13.9231C14.5074 9.47498 14.9827 9.9503 14.9827 10.5346C14.9827 11.119 14.5074 11.5943 13.9231 11.5943Z" fill="white"/>
<path d="M5.27874 5.865C5.35995 5.91298 5.44904 5.93587 5.53704 5.93587C5.71099 5.93587 5.88044 5.84652 5.97539 5.68596C6.1184 5.44411 6.0382 5.13224 5.79635 4.98931C5.51355 4.82214 5.31807 4.51374 5.26009 4.14329C5.19973 3.75758 5.30052 3.3734 5.52949 3.11578C5.53153 3.11349 5.53356 3.1112 5.53551 3.10883C5.59087 3.04423 5.64622 2.98074 5.70107 2.91775C6.17155 2.37742 6.65814 1.81886 6.79784 1.00591C6.84548 0.729042 6.65958 0.465996 6.3828 0.41844C6.10594 0.370883 5.84289 0.556617 5.79533 0.83348C5.70387 1.36551 5.34706 1.77521 4.93397 2.24959C4.87828 2.3135 4.82216 2.37801 4.76604 2.44346C4.33955 2.92564 4.14856 3.61941 4.25512 4.30037C4.36007 4.97227 4.73323 5.54253 5.27874 5.865Z" fill="white"/>
<path d="M6.8572 4.71632C7.02513 5.14874 7.32471 5.54479 7.70084 5.83149C7.7929 5.90168 7.90124 5.93567 8.00882 5.93567C8.16208 5.93567 8.31365 5.86667 8.41368 5.73536C8.58399 5.51199 8.54093 5.19282 8.31747 5.02252C8.09164 4.85035 7.90497 4.60459 7.80545 4.34816C7.60717 3.83758 7.79502 3.32879 8.43369 2.6468C8.88646 2.16326 9.17586 1.59377 9.27055 0.999692C9.31472 0.72232 9.12576 0.461564 8.84831 0.417313C8.57094 0.373063 8.31018 0.562103 8.26593 0.839559C8.20243 1.2379 8.00907 1.612 7.69118 1.95151C7.3576 2.30763 6.34272 3.39143 6.8572 4.71632Z" fill="white"/>
</g>
<defs>
<clipPath id="clip0_2466_142">
<rect width="16" height="16" fill="white"/>
</clipPath>
</defs>
</svg>
