<svg width="16" height="16" viewBox="0 0 16 16" fill="none" xmlns="http://www.w3.org/2000/svg">
<g clip-path="url(#clip0_2466_201)">
<path d="M8.00068 0C3.66811 0 0.142456 3.52554 0.142456 7.85797C0.142456 11.5981 2.77061 14.7346 6.27722 15.5235C5.87222 15.1324 5.58815 14.6188 5.48419 14.0419C3.04542 13.0462 1.32196 10.6507 1.32196 7.85746C1.32196 5.15837 2.9322 2.8298 5.24181 1.77846C5.15021 2.29976 5.54132 2.9003 5.98646 3.43908C6.38941 3.92641 6.2165 4.29435 5.90567 4.55165C5.80789 4.63245 5.77084 4.76573 5.81304 4.88563C5.85523 5.00502 5.96742 5.08581 6.09402 5.08787C10.0962 5.14756 11.0688 2.87199 11.2906 2.04966C13.3126 3.19877 14.6784 5.3709 14.6784 7.85746C14.6784 10.502 13.133 12.7925 10.898 13.8737C10.8285 14.4593 10.5743 14.9873 10.1966 15.4005C13.4634 14.4474 15.8579 11.4278 15.8579 7.85746C15.8589 3.52554 12.3333 0 8.00068 0Z" fill="white"/>
<path d="M5.90562 8.55228C6.39419 8.55228 6.79025 8.15623 6.79025 7.66768C6.79025 7.17913 6.39419 6.78308 5.90562 6.78308C5.41706 6.78308 5.021 7.17913 5.021 7.66768C5.021 8.15623 5.41706 8.55228 5.90562 8.55228Z" fill="white"/>
<path d="M10.0339 8.55228C10.5225 8.55228 10.9185 8.15623 10.9185 7.66768C10.9185 7.17913 10.5225 6.78308 10.0339 6.78308C9.54535 6.78308 9.14929 7.17913 9.14929 7.66768C9.14929 8.15623 9.54535 8.55228 10.0339 8.55228Z" fill="white"/>
<path d="M5.57063 12.7165C5.77442 12.0835 6.2031 11.5524 6.76043 11.2143C6.80469 10.4908 7.39753 9.91703 8.12417 9.91703C8.82817 9.91703 9.40763 10.4543 9.48276 11.1459C10.1008 11.4809 10.5743 12.0475 10.7904 12.7278C11.1445 12.3588 11.3529 11.9111 11.3529 11.4289C11.3529 10.1661 9.93511 9.14307 8.18695 9.14307C6.43828 9.14307 5.02051 10.1661 5.02051 11.4289C5.02051 11.9065 5.22378 12.3485 5.57063 12.7165Z" fill="white"/>
<path d="M8.48338 12.6334C8.38715 12.6015 8.28474 12.5835 8.17873 12.5835C8.06294 12.5835 7.95281 12.6046 7.84988 12.6416C7.94149 12.6658 7.92553 12.6699 7.83033 12.6489C7.46701 12.7893 7.20764 13.1413 7.20764 13.5546C7.20764 13.5705 7.20919 13.5865 7.21021 13.6029C7.51796 13.6755 7.84525 13.7146 8.18645 13.7146C8.52095 13.7146 8.8431 13.6765 9.14621 13.607C9.14672 13.5901 9.14878 13.5731 9.14878 13.5546C9.1493 13.1254 8.86934 12.7615 8.48338 12.6334Z" fill="white"/>
<path d="M8.14998 10.3226C7.65646 10.3226 7.23447 10.6262 7.05847 11.0565C7.40069 10.9016 7.77945 10.8136 8.17931 10.8136C8.55087 10.8136 8.90492 10.8892 9.2281 11.0235C9.04387 10.6108 8.63115 10.3226 8.14998 10.3226Z" fill="white"/>
<path d="M8.17923 11.1093C6.83093 11.1093 5.73376 12.2064 5.73376 13.5546C5.73376 14.9024 6.83093 16 8.17923 16C9.52702 16 10.6242 14.9029 10.6242 13.5546C10.6242 12.2059 9.52702 11.1093 8.17923 11.1093ZM8.17923 14.82C7.48089 14.82 6.91327 14.2519 6.91327 13.5546C6.91327 12.8574 7.48141 12.2887 8.17923 12.2887C8.87654 12.2887 9.44468 12.8568 9.44468 13.5546C9.44468 14.2524 8.87705 14.82 8.17923 14.82Z" fill="white"/>
</g>
<defs>
<clipPath id="clip0_2466_201">
<rect width="16" height="16" fill="white"/>
</clipPath>
</defs>
</svg>
