<svg width="16" height="16" viewBox="0 0 16 16" fill="none" xmlns="http://www.w3.org/2000/svg">
<g clip-path="url(#clip0_2466_29)">
<path d="M14.9771 7.19274C14.8574 7.09318 14.6998 7.05187 14.5466 7.08005L12.7305 7.41461V6.2728C12.7305 5.98325 12.4958 5.74855 12.2062 5.74855H11.8881C12.5583 5.14437 12.9805 4.27001 12.9805 3.29873C12.9805 1.4798 11.5008 0 9.68189 0C8.51874 0 7.4949 0.605735 6.90745 1.5178C6.31992 0.605735 5.29621 0 4.13302 0C2.31409 0 0.83429 1.4798 0.83429 3.29873C0.83429 4.27001 1.25645 5.14433 1.92669 5.74855H1.60854C1.31903 5.74855 1.08429 5.98325 1.08429 6.2728V12.5406C1.08429 12.8302 1.31903 13.0649 1.60854 13.0649H5.69766L3.6575 15.1051C3.45275 15.3098 3.45275 15.6418 3.6575 15.8465C3.86229 16.0513 4.19421 16.0512 4.39891 15.8465L6.90745 13.338L9.41595 15.8465C9.51833 15.9489 9.65253 16 9.7867 16C9.92078 16 10.055 15.9488 10.1574 15.8465C10.3622 15.6418 10.3622 15.3098 10.1574 15.1051L8.11725 13.0649H12.2064C12.4958 13.0649 12.7306 12.8302 12.7306 12.5406V11.3988L14.5466 11.7335C14.5783 11.7393 14.6101 11.7422 14.6417 11.7422C14.7632 11.7422 14.8822 11.6998 14.9771 11.6207C15.0968 11.5211 15.1659 11.3735 15.1659 11.2179V7.59558C15.1659 7.43998 15.0967 7.29235 14.9771 7.19274ZM9.68193 1.04853C10.9227 1.04853 11.9321 2.05798 11.9321 3.29877C11.9321 4.53951 10.9227 5.54896 9.68193 5.54896C8.44115 5.54896 7.43174 4.53955 7.43174 3.29877C7.43166 2.05798 8.44115 1.04853 9.68193 1.04853ZM6.90741 5.07965C7.06682 5.3271 7.25778 5.55227 7.47557 5.74859H6.3393C6.55709 5.55227 6.74804 5.3271 6.90741 5.07965ZM1.88282 3.29877C1.88282 2.05798 2.89227 1.04853 4.13306 1.04853C5.3738 1.04853 6.38321 2.05798 6.38321 3.29877C6.38321 4.53951 5.3738 5.54896 4.13306 5.54896C2.89223 5.54896 1.88282 4.53955 1.88282 3.29877ZM11.6821 12.0165H2.13283V6.79709H11.6821V12.0165ZM14.1174 10.5883L12.7306 10.3328V8.4808L14.1174 8.2253V10.5883Z" fill="white"/>
</g>
<defs>
<clipPath id="clip0_2466_29">
<rect width="16" height="16" fill="white"/>
</clipPath>
</defs>
</svg>
