<svg width="16" height="16" viewBox="0 0 16 16" fill="none" xmlns="http://www.w3.org/2000/svg">
<g clip-path="url(#clip0_2466_51)">
<path d="M15.6113 5.53933L8.1852 3.00778C8.06503 2.96681 7.93497 2.96681 7.8148 3.00778L0.388683 5.53933C0.156285 5.61862 -8.82594e-05 5.83707 3.73735e-08 6.08271C8.83342e-05 6.32844 0.156462 6.5468 0.389124 6.62591L3.2759 7.60786V10.5996C3.2759 10.7427 3.32923 10.8805 3.42556 10.9862C4.60486 12.2803 6.28488 13.0226 8.03466 13.0226C9.76722 13.0226 11.377 12.3287 12.5672 11.0688C12.6679 10.9623 12.7239 10.8212 12.7239 10.6747V7.61228L13.9158 7.20505V8.64809C13.7815 8.75316 13.695 8.91624 13.695 9.09981V10.4998C13.695 10.8167 13.952 11.0737 14.2689 11.0737C14.5859 11.0737 14.8429 10.8167 14.8429 10.4998V9.09981C14.8429 8.91615 14.7563 8.75307 14.6221 8.64809V6.96374L15.6115 6.62574C15.8438 6.54636 15.9999 6.32791 15.9998 6.08245C15.9999 5.83689 15.8437 5.61854 15.6113 5.53933ZM11.5762 10.4395C10.6226 11.3667 9.37368 11.8746 8.03475 11.8746C6.67957 11.8746 5.37577 11.329 4.42376 10.3704V7.99831L7.83175 9.15747C7.8917 9.17787 7.95413 9.18802 8.01656 9.18802C8.07925 9.18802 8.14202 9.17778 8.20216 9.1572L11.5762 8.0044V10.4395H11.5762ZM8.01611 8.00776L2.35435 6.08192L7.99996 4.15731L13.6491 6.08315L8.01611 8.00776Z" fill="white"/>
</g>
<defs>
<clipPath id="clip0_2466_51">
<rect width="16" height="16" fill="white"/>
</clipPath>
</defs>
</svg>
