<svg width="16" height="16" viewBox="0 0 16 16" fill="none" xmlns="http://www.w3.org/2000/svg">
<g clip-path="url(#clip0_2466_358)">
<path d="M15.4739 4.98349H11.0174V0.527106C11.0174 0.236542 10.7819 0.000976562 10.4913 0.000976562H5.50864C5.21808 0.000976562 4.98251 0.236542 4.98251 0.527106V4.98349H0.526129C0.235565 4.98349 0 5.21905 0 5.50962V10.4925C0 10.7831 0.235565 11.0187 0.526129 11.0187H4.98251V15.4747C4.98251 15.7653 5.21808 16.0008 5.50864 16.0008H10.4912C10.7818 16.0008 11.0173 15.7653 11.0173 15.4747V11.0187H15.4738C15.7644 11.0187 15.9999 10.7831 15.9999 10.4925V5.50962C16 5.21905 15.7644 4.98349 15.4739 4.98349ZM14.9477 9.96642H10.4913C10.2007 9.96642 9.96516 10.202 9.96516 10.4925V14.9486H6.03477V10.4925C6.03477 10.202 5.7992 9.96642 5.50864 9.96642H1.05226V6.03575H5.50864C5.7992 6.03575 6.03477 5.80018 6.03477 5.50962V1.05323H9.96509V5.50962C9.96509 5.80018 10.2007 6.03575 10.4912 6.03575H14.9477V9.96642H14.9477Z" fill="white"/>
</g>
<defs>
<clipPath id="clip0_2466_358">
<rect width="16" height="16" fill="white"/>
</clipPath>
</defs>
</svg>
