<svg width="347" height="337" viewBox="0 0 347 337" fill="none" xmlns="http://www.w3.org/2000/svg">
<rect width="347" height="337" fill="#484848"/>
<g opacity="0.1" clip-path="url(#clip0_2_5472)">
<path d="M190 312.964C193.134 292.728 195.955 273.426 199.09 253.813C199.716 249.144 205.672 246.03 210.06 247.276C219.463 250.389 229.179 253.191 238.582 256.304C240.463 256.927 242.657 259.106 243.284 260.974C249.552 278.407 255.194 296.153 261.463 313.586C262.716 317.011 261.776 318.256 258.642 319.813C245.478 326.351 232.313 333.2 219.463 340.049C216.642 341.605 214.761 341.294 212.881 338.803C205.985 331.02 198.776 323.237 191.881 315.454C190.94 315.143 190.313 313.586 190 312.964Z" fill="#858585"/>
<path d="M188 255.017C185.257 273.185 182.819 290.747 180.381 308.007C180.076 310.732 178.857 311.943 175.81 312.549C163.314 314.669 150.514 316.788 138.019 318.908C134.057 319.514 130.095 317.091 129.486 312.852C127.352 297.712 125.524 282.269 124 266.826C124 265.615 125.219 263.193 126.438 262.587C133.143 258.953 140.152 255.623 146.857 251.989C147.771 251.383 148.99 250.778 149.905 251.081C162.705 252.292 175.2 253.503 188 255.017Z" fill="#858585"/>
<path d="M208 347.773C200.583 356.671 193.166 365.568 186.058 374.466C185.439 375.386 183.894 376 182.658 376C166.587 376 150.517 376 134.137 376C134.137 376 133.828 375.08 134.137 373.852C135.374 359.739 136.61 345.625 137.846 331.512C137.846 330.284 139.7 328.137 140.936 327.83C153.916 325.375 167.206 323.228 180.186 321.08C181.731 320.773 183.894 321.387 184.821 322.307C192.548 330.898 199.965 339.182 208 347.773Z" fill="#858585"/>
<path d="M410 201.42C402.623 213.531 395.554 225.331 388.485 237.131C387.563 238.684 385.411 239.615 383.874 239.926C373.732 242.1 363.589 243.963 353.446 245.826C346.991 247.068 340.537 241.478 340.229 234.957C339.922 220.983 339.307 207.009 339 193.036C339 189.93 339.922 188.688 342.381 187.135C352.831 180.614 362.667 180.304 373.732 186.204C383.874 191.483 394.939 195.209 405.39 199.557C406.926 199.867 408.156 200.799 410 201.42Z" fill="#858585"/>
<path d="M300 125.029C311.137 115.456 321.965 105.882 333.411 96C341.764 105.574 349.807 114.838 357.85 124.103C361.253 128.118 364.966 132.132 368.059 136.456C368.987 137.691 369.297 140.162 368.678 141.397C364.656 150.353 360.635 159 356.304 167.647C355.685 169.191 354.138 170.735 352.901 171.353C347.023 174.441 341.145 176.912 334.648 180C322.893 161.471 311.446 143.25 300 125.029Z" fill="#858585"/>
<path d="M336.984 80C329.634 65.686 321.672 51.9943 315.854 37.369C313.097 30.5232 314.322 21.8103 314.016 14.0309C314.016 13.0974 315.547 11.8527 316.466 11.5415C325.347 7.80743 334.228 3.76216 343.109 0.339233C344.64 -0.283116 346.477 0.0280586 348.009 0.650408C352.908 2.82863 358.114 5.00686 362.708 7.80743C364.239 8.74095 365.77 11.2304 365.77 12.7862C366.077 29.9008 366.077 46.7043 365.77 63.8189C365.77 65.686 364.239 68.1754 362.708 68.7977C354.44 72.5318 345.865 75.9547 336.984 80Z" fill="#858585"/>
<path d="M330 86.3502C317.79 97.1308 305.58 107.603 293.683 118.076C292.743 118.692 291.491 119 290.239 119C284.916 118.692 279.281 118.384 273.958 117.768C272.706 117.46 270.828 116.228 270.515 114.996C267.384 104.523 264.566 93.7426 262.061 83.27C261.748 82.038 262.688 79.8819 263.627 78.9578C278.655 67.8692 293.683 57.0886 309.337 46C315.911 59.2447 322.799 72.4894 330 86.3502Z" fill="#858585"/>
<path d="M323 250C314.271 267.093 305.541 283.254 298.059 299.726C293.694 309.361 288.083 314.333 277.171 314.955C272.183 315.266 270.624 314.022 269.065 309.671C263.765 293.2 258.154 277.039 252.542 260.878C251.295 257.77 252.23 256.527 255.036 254.973C261.583 251.554 268.442 250 275.924 250C291.2 250.311 306.477 250 323 250Z" fill="#858585"/>
<path d="M322.692 182.317C312.518 184.529 301.729 185.793 291.864 189.27C280.149 193.378 272.134 189.902 263.81 181.685C258.261 175.997 256.103 171.256 257.336 163.672C258.569 154.823 259.186 145.975 259.803 136.81C260.111 132.07 265.66 126.697 270.592 127.013C276.45 127.329 282.615 127.645 288.473 128.277C289.706 128.277 291.247 129.225 291.864 130.174C302.345 146.923 312.518 163.672 323 180.737C323 181.053 322.692 181.369 322.692 182.317Z" fill="#858585"/>
<path d="M267 243C269.092 232.779 271.783 223.46 272.979 213.84C274.174 206.325 277.462 203.018 284.936 202.117C297.789 200.012 310.344 197.006 324.394 194C324.394 201.515 324.394 208.429 324.394 215.043C324.394 223.16 324.693 231.276 324.992 239.092C324.992 241.196 325.291 243 322.301 243C304.366 243 286.131 243 267 243Z" fill="#858585"/>
<path d="M250.774 182C256.274 187.038 261.774 191.762 266.969 196.801C267.885 197.745 268.191 199.635 267.885 201.209C265.135 214.12 262.691 227.032 259.635 239.943C259.33 241.517 257.802 243.092 256.274 244.351C248.94 249.39 241.301 250.649 233.051 246.556C227.245 243.722 220.523 242.147 214.411 240.258C211.356 239.313 210.744 237.738 210.439 234.904C208.3 220.733 214.106 211.286 225.106 203.729C234.273 197.115 242.218 189.243 250.774 182Z" fill="#858585"/>
<path d="M300 314.856C311.64 292.49 322.65 271.056 333.975 249C340.267 251.796 345.615 253.97 347.502 261.426C350.648 273.541 354.738 285.034 358.513 296.839C359.142 299.324 359.457 300.877 357.569 303.052C350.334 310.818 343.727 319.205 336.492 326.971C335.548 328.213 333.346 329.456 332.088 328.835C321.392 324.486 311.01 319.826 300 314.856Z" fill="#858585"/>
<path d="M401 317.382C394.461 334.128 388.233 350.254 382.005 367C379.514 366.38 377.023 365.76 374.532 365.139C366.747 362.969 358.963 360.798 351.178 358.317C349.31 357.697 348.064 355.216 346.507 353.665V353.355C344.95 347.773 341.214 342.191 342.148 337.229C343.082 332.578 348.687 328.546 352.112 324.515C356.472 319.553 360.52 314.591 364.879 309.63C365.813 308.389 368.304 307.769 369.55 308.079C379.826 310.87 390.101 313.971 401 317.382Z" fill="#858585"/>
<path d="M275 325.32C284.995 322.887 294.677 321.062 304.359 326.841C311.855 331.099 319.976 333.836 327.784 337.486C329.658 338.398 331.532 340.527 332.157 342.352C334.343 347.826 337.779 353.909 336.842 359.079C335.905 364.25 329.346 368.204 326.222 373.07C323.099 377.328 319.976 377.936 315.291 375.807C307.482 372.766 299.362 370.333 291.241 367.595C289.68 366.987 287.806 365.771 287.493 364.554C283.433 352.693 279.685 340.527 275.625 328.666C275.625 327.753 275.312 326.537 275 325.32Z" fill="#858585"/>
<path d="M222 349.732C236.593 342.259 250.875 334.785 265.778 327C267.331 331.671 268.883 336.342 270.125 340.702C272.298 347.553 273.851 354.715 276.645 361.254C279.129 367.171 278.198 371.531 273.851 376.202C267.641 383.053 261.742 390.215 255.532 398C244.044 381.496 233.177 365.925 222 349.732Z" fill="#858585"/>
<path d="M340 88.497C350.259 84.1621 359.275 79.5175 368.912 76.4211C372.642 75.1825 377.617 77.0403 382.28 77.35C387.254 77.6596 389.43 80.1367 390.363 85.091C392.85 96.5476 396.269 107.695 399.067 118.842C399.378 120.08 399.689 121.628 400 123.486C392.85 125.963 386.01 128.441 379.171 130.918C378.238 131.227 376.062 130.608 375.44 129.989C363.938 116.365 352.124 102.74 340 88.497Z" fill="#858585"/>
</g>
<path fill-rule="evenodd" clip-rule="evenodd" d="M118.425 211H124.149V216.767H118.425V211ZM132.701 300.393L138.425 306.16V337H132.701V300.393ZM112.701 337H118.425V300.113L129.851 293.436L141.276 304.946V336.977H147V294.44L124.149 271.397V219.638H107V225.405H112.701V337Z" fill="#6A6969"/>
<defs>
<clipPath id="clip0_2_5472">
<rect width="347" height="337" fill="white"/>
</clipPath>
</defs>
</svg>
