<svg width="615" height="480" viewBox="0 0 615 480" fill="none" xmlns="http://www.w3.org/2000/svg">
<rect width="615" height="480" fill="#484848"/>
<g opacity="0.1" clip-path="url(#clip0_2_5384)">
<path d="M345 445.946C349.701 415.592 353.933 386.64 358.634 357.22C359.575 350.215 368.507 345.546 375.09 347.413C389.194 352.083 403.769 356.286 417.873 360.956C420.694 361.89 423.985 365.159 424.925 367.96C434.328 394.111 442.791 420.729 452.194 446.88C454.075 452.016 452.664 453.884 447.963 456.219C428.216 466.026 408.47 476.299 389.194 486.573C384.963 488.908 382.142 488.441 379.321 484.705C368.978 473.03 358.164 461.356 347.821 449.682C346.41 449.215 345.47 446.88 345 445.946Z" fill="#858585"/>
<path d="M343 358.084C338.886 385.604 335.229 412.206 331.571 438.349C331.114 442.477 329.286 444.311 324.714 445.229C305.971 448.439 286.771 451.65 268.029 454.861C262.086 455.778 256.143 452.109 255.229 445.687C252.029 422.755 249.286 399.363 247 375.972C247 374.137 248.829 370.468 250.657 369.551C260.714 364.047 271.229 359.002 281.286 353.498C282.657 352.581 284.486 351.663 285.857 352.122C305.057 353.957 323.8 355.791 343 358.084Z" fill="#858585"/>
<path d="M372 497.916C360.974 511.182 349.949 524.447 339.383 537.713C338.464 539.085 336.167 540 334.329 540C310.441 540 286.552 540 262.204 540C262.204 540 261.745 538.628 262.204 536.798C264.042 515.756 265.879 494.714 267.717 473.672C267.717 471.842 270.473 468.64 272.311 468.183C291.606 464.523 311.36 461.321 330.654 458.119C332.951 457.662 336.167 458.576 337.545 459.949C349.03 472.757 360.056 485.108 372 497.916Z" fill="#858585"/>
<path d="M676 278.13C664.883 296.296 654.229 313.996 643.576 331.697C642.186 334.026 638.944 335.423 636.628 335.889C621.342 339.149 606.056 341.944 590.771 344.739C581.043 346.602 571.316 338.218 570.853 328.436C570.39 307.475 569.463 286.514 569 265.553C569 260.895 570.39 259.032 574.095 256.703C589.844 246.921 604.667 246.456 621.342 255.306C636.628 263.224 653.303 268.814 669.052 275.335C671.368 275.801 673.221 277.198 676 278.13Z" fill="#858585"/>
<path d="M510 163.544C526.786 149.184 543.106 134.824 560.359 120C572.948 134.36 585.072 148.257 597.195 162.154C602.324 168.176 607.919 174.199 612.582 180.684C613.981 182.537 614.447 186.243 613.515 188.096C607.453 201.529 601.391 214.5 594.864 227.471C593.931 229.787 591.6 232.103 589.734 233.029C580.875 237.662 572.016 241.368 562.224 246C544.505 218.206 527.252 190.875 510 163.544Z" fill="#858585"/>
<path d="M565.918 96C554.752 74.5289 542.656 53.9914 533.816 32.0536C529.629 21.7848 531.49 8.71545 531.024 -2.95361C531.024 -4.3539 533.351 -6.22095 534.746 -6.68771C548.239 -12.2889 561.731 -18.3568 575.223 -23.4911C577.549 -24.4247 580.341 -23.9579 582.667 -23.0244C590.111 -19.7571 598.02 -16.4897 604.999 -12.2889C607.325 -10.8886 609.651 -7.15447 609.651 -4.82066C610.116 20.8513 610.116 46.0564 609.651 71.7284C609.651 74.5289 607.325 78.263 604.999 79.1966C592.437 84.7977 579.41 89.9321 565.918 96Z" fill="#858585"/>
<path d="M555 105.802C536.864 122.046 518.729 137.827 501.058 153.608C499.663 154.536 497.803 155 495.943 155C488.037 154.536 479.667 154.072 471.762 153.143C469.902 152.679 467.112 150.823 466.647 148.966C461.997 133.186 457.811 116.941 454.091 101.16C453.626 99.3038 455.021 96.0549 456.416 94.6624C478.737 77.9536 501.058 61.7089 524.309 45C534.074 64.9578 544.305 84.9156 555 105.802Z" fill="#858585"/>
<path d="M545 351C531.845 376.772 518.689 401.137 507.413 425.972C500.835 440.498 492.378 447.995 475.934 448.932C468.417 449.4 466.067 447.526 463.718 440.966C455.731 416.132 447.274 391.766 438.817 367.4C436.937 362.714 438.347 360.84 442.575 358.497C452.442 353.343 462.778 351 474.055 351C497.077 351.469 520.099 351 545 351Z" fill="#858585"/>
<path d="M594 358.443C610.333 355.17 626.2 351.897 642.067 349.092C643.933 348.624 646.267 350.027 647.667 351.43C666.333 366.859 685 382.288 703.667 397.718C705.533 399.12 705.533 402.393 706 405.199C706 406.134 705.067 407.069 705.067 408.004C703.2 425.304 693.4 434.655 676.6 437.46C673.333 437.928 669.133 438.395 665.867 437.46C650.467 433.252 635.067 428.577 619.667 423.433C617.333 422.498 614.067 420.628 613.133 418.758C606.6 399.12 600.533 379.015 594 358.443Z" fill="#858585"/>
<path d="M544.538 249.111C529.278 252.395 513.093 254.272 498.296 259.432C480.724 265.53 468.701 260.37 456.215 248.173C447.892 239.73 444.655 232.693 446.504 221.435C448.354 208.3 449.279 195.165 450.204 181.562C450.666 174.525 458.99 166.551 466.389 167.02C475.175 167.489 484.423 167.958 493.209 168.896C495.059 168.896 497.371 170.303 498.296 171.711C514.018 196.573 529.278 221.435 545 246.766C545 247.235 544.538 247.704 544.538 249.111Z" fill="#858585"/>
<path d="M461 340C464.139 324.773 468.174 310.89 469.968 296.558C471.761 285.362 476.694 280.436 487.903 279.092C507.184 275.957 526.016 271.479 547.091 267C547.091 278.196 547.091 288.497 547.091 298.35C547.091 310.442 547.539 322.534 547.988 334.178C547.988 337.313 548.436 340 543.952 340C517.049 340 489.697 340 461 340Z" fill="#858585"/>
<path d="M436.864 249C445.209 256.52 453.554 263.57 461.435 271.09C462.826 272.5 463.29 275.321 462.826 277.671C458.654 296.941 454.945 316.211 450.308 335.482C449.845 337.832 447.527 340.182 445.209 342.062C434.082 349.582 422.491 351.462 409.974 345.352C401.165 341.122 390.965 338.772 381.693 335.952C377.057 334.542 376.129 332.192 375.666 327.961C372.421 306.811 381.229 292.711 397.92 281.431C411.828 271.56 423.882 259.81 436.864 249Z" fill="#858585"/>
<path d="M511 447.784C528.361 414.235 544.783 382.083 561.675 349C571.059 353.194 579.036 356.455 581.851 367.638C586.543 385.811 592.643 403.052 598.273 420.758C599.212 424.486 599.681 426.816 596.866 430.077C586.074 441.726 576.22 454.307 565.429 465.956C564.021 467.82 560.736 469.684 558.86 468.752C542.906 462.229 527.422 455.239 511 447.784Z" fill="#858585"/>
<path d="M662 452.153C652.136 477.414 642.741 501.739 633.347 527C629.589 526.064 625.832 525.129 622.074 524.193C610.331 520.919 598.588 517.644 586.845 513.902C584.027 512.966 582.148 509.224 579.799 506.885V506.417C577.451 497.997 571.814 489.577 573.223 482.092C574.632 475.075 583.087 468.994 588.254 462.912C594.83 455.428 600.936 447.943 607.513 440.458C608.922 438.587 612.679 437.651 614.558 438.119C630.059 442.329 645.56 447.007 662 452.153Z" fill="#858585"/>
<path d="M473 463.523C487.992 459.828 502.515 457.057 517.039 465.832C528.283 472.298 540.464 476.455 552.176 481.997C554.987 483.382 557.798 486.615 558.735 489.386C562.015 497.699 567.168 506.936 565.762 514.787C564.357 522.639 554.519 528.643 549.834 536.032C545.149 542.498 540.464 543.421 533.436 540.189C521.724 535.57 509.543 531.875 497.362 527.719C495.019 526.795 492.208 524.948 491.74 523.101C485.649 505.089 480.027 486.615 473.937 468.603C473.937 467.218 473.468 465.37 473 463.523Z" fill="#858585"/>
<path d="M680.746 264C656.031 253.702 632.249 243.871 608 234.041C614.995 219.061 621.99 204.55 628.984 190.038C629.917 188.634 631.782 187.698 633.648 186.761C637.845 184.889 642.508 183.953 646.705 182.08C663.959 172.25 680.746 175.059 698 185.357C692.404 210.635 686.342 236.849 680.746 264Z" fill="#858585"/>
<path d="M394 500.939C415.889 489.781 437.312 478.623 459.667 467C461.996 473.974 464.325 480.947 466.188 487.456C469.448 497.684 471.776 508.377 475.968 518.14C479.694 526.974 478.296 533.482 471.776 540.456C462.462 550.684 453.613 561.377 444.298 573C427.067 548.36 410.766 525.114 394 500.939Z" fill="#858585"/>
<path d="M570 108.859C585.56 102.317 599.233 95.3082 613.85 90.6354C619.508 88.7663 627.052 91.57 634.124 92.0372C641.668 92.5045 644.969 96.2427 646.383 103.719C650.155 121.008 655.342 137.83 659.585 154.652C660.057 156.521 660.528 158.857 661 161.661C650.155 165.399 639.782 169.138 629.409 172.876C627.995 173.343 624.694 172.408 623.751 171.474C606.306 150.914 588.389 130.354 570 108.859Z" fill="#858585"/>
</g>
<path fill-rule="evenodd" clip-rule="evenodd" d="M200.707 196H213.586V208.952H200.707V196ZM232.827 396.779L245.707 409.731V479H232.827V396.779ZM187.827 479H200.707V396.15L226.414 381.153L252.121 407.005V478.948H265V383.408L213.586 331.653V215.402H175V228.353H187.827V479Z" fill="#6A6969"/>
<defs>
<clipPath id="clip0_2_5384">
<rect width="523" height="479" fill="white" transform="translate(92)"/>
</clipPath>
</defs>
</svg>
