<svg width="688" height="478" viewBox="0 0 688 478" fill="none" xmlns="http://www.w3.org/2000/svg">
<rect width="688" height="478" fill="#484848"/>
<g opacity="0.1" clip-path="url(#clip0_2_5319)">
<path d="M495.743 256.551C499.569 231.691 503.012 207.979 506.837 183.884C507.602 178.147 514.871 174.323 520.227 175.853C531.703 179.677 543.562 183.119 555.039 186.944C557.334 187.709 560.012 190.386 560.777 192.681C568.428 214.098 575.314 235.898 582.965 257.316C584.495 261.523 583.347 263.053 579.522 264.965C563.455 272.997 547.388 281.411 531.703 289.825C528.26 291.737 525.965 291.355 523.67 288.295C515.253 278.734 506.455 269.172 498.039 259.611C496.891 259.228 496.126 257.316 495.743 256.551Z" fill="#858585"/>
<path d="M356.617 352.048C359.621 352.798 361.498 353.548 363.376 354.298C372.387 357.673 381.398 361.423 390.409 364.798C394.164 366.298 396.042 368.172 396.417 372.297C397.168 379.797 400.923 387.672 399.421 394.046C397.543 400.421 390.785 405.296 385.904 410.92C379.896 417.67 374.264 424.795 367.881 431.169C366.379 433.044 363.376 434.169 361.123 434.169C341.223 433.044 321.323 431.919 301.423 430.795C296.917 430.42 296.166 428.545 298.419 425.17C313.062 403.046 327.33 380.547 342.349 358.798C344.978 354.673 352.111 353.923 356.617 352.048Z" fill="#858585"/>
<path d="M494.04 184.806C490.661 207.305 487.657 229.053 484.653 250.427C484.278 253.802 482.776 255.302 479.021 256.052C463.627 258.677 447.857 261.302 432.463 263.927C427.581 264.677 422.7 261.677 421.949 256.427C419.321 237.678 417.068 218.554 415.191 199.43C415.191 197.93 416.693 194.93 418.195 194.18C426.455 189.68 435.091 185.556 443.351 181.056C444.478 180.306 445.98 179.556 447.106 179.931C462.876 181.431 478.27 182.931 494.04 184.806Z" fill="#858585"/>
<path d="M501.55 407.918C479.397 407.918 457.62 408.293 436.218 407.543C432.839 407.543 429.835 403.793 426.831 402.293C414.065 397.044 409.184 386.919 407.682 373.795C406.931 366.67 408.433 362.545 412.939 357.296C419.697 349.421 427.207 346.046 437.72 346.421C452.363 347.171 467.382 345.671 482.025 345.296C483.903 345.296 486.907 346.421 487.282 347.921C492.163 367.795 497.044 387.669 501.55 407.918Z" fill="#858585"/>
<path d="M524.825 307.798C538.717 327.672 552.234 346.796 565 365.92C567.253 369.295 568.379 373.42 568.755 377.545C569.881 385.419 570.257 393.294 571.383 401.919C553.736 405.668 536.464 409.418 519.193 412.793C517.691 413.168 513.936 410.543 513.561 408.668C508.304 386.919 503.047 365.17 498.166 343.421C497.791 341.921 498.542 340.046 499.293 338.922C507.553 328.422 515.813 318.297 524.825 307.798Z" fill="#858585"/>
<path d="M516.94 299.175C507.928 310.05 498.917 320.924 490.281 331.799C489.53 332.924 487.653 333.673 486.151 333.673C466.626 333.673 447.102 333.673 427.202 333.673C427.202 333.673 426.827 332.549 427.202 331.049C428.704 313.799 430.206 296.55 431.708 279.301C431.708 277.801 433.961 275.176 435.462 274.801C451.232 271.801 467.377 269.177 483.147 266.552C485.025 266.177 487.653 266.927 488.779 268.052C498.166 278.551 507.177 288.676 516.94 299.175Z" fill="#858585"/>
<path d="M298.044 442.044C319.07 443.544 339.721 444.669 359.997 446.169C361.123 446.169 363 448.419 363.376 449.919C366.004 457.793 368.257 466.043 370.134 474.293C370.51 475.417 370.51 477.667 369.759 478.417C355.866 491.917 341.974 505.041 328.082 518.165C328.457 518.915 328.457 519.29 328.832 520.04C326.58 518.165 324.702 516.291 322.449 514.416C311.936 504.666 301.048 495.292 290.534 485.542C288.282 483.292 287.531 481.792 288.282 478.417C291.661 466.418 294.665 454.418 298.044 442.044Z" fill="#858585"/>
<path d="M439.97 419.919C448.606 419.919 456.491 419.919 464.376 419.919C477.893 419.919 491.034 420.294 504.551 420.294C508.682 420.294 510.184 421.794 509.433 425.919C506.053 442.793 503.425 460.042 500.046 476.916C499.67 479.541 497.793 482.166 495.916 484.416C493.287 487.416 490.284 489.666 487.28 492.29C479.019 499.79 479.019 499.79 469.257 494.54C464.376 491.915 459.495 488.916 454.238 486.291C450.108 484.416 448.231 481.791 447.48 476.916C445.227 458.167 442.599 439.418 439.97 419.919Z" fill="#858585"/>
<path d="M407.305 403.418C413.688 407.543 419.695 411.293 425.703 415.418C426.829 416.168 427.955 418.043 428.331 419.543C431.335 439.792 433.963 460.416 436.591 481.79C425.703 483.29 415.189 485.915 404.301 485.915C399.42 485.915 394.539 480.665 389.282 478.415C383.274 476.165 381.397 471.29 380.271 465.666C379.52 462.291 378.769 458.541 377.267 455.541C372.761 446.166 374.639 438.667 382.523 431.167C391.159 422.918 399.044 412.793 407.305 403.418Z" fill="#858585"/>
<path d="M693.52 493.293C678.983 491.763 664.829 490.616 651.057 489.086C642.258 488.321 633.077 487.174 624.278 486.026C622.748 485.644 620.453 484.114 620.453 482.967C616.627 464.226 613.184 445.104 609.359 425.981C624.278 418.331 639.198 411.065 654.117 403.798C655.647 403.033 657.56 403.416 659.09 403.798C670.949 408.005 682.808 412.595 694.667 416.802C698.11 417.949 698.875 419.479 698.493 422.921C696.963 445.868 695.433 469.198 693.52 493.293Z" fill="#858585"/>
<path d="M767.355 118.867C758.174 133.783 749.375 148.317 740.576 162.85C739.429 164.762 736.751 165.91 734.838 166.292C722.214 168.969 709.59 171.264 696.966 173.559C688.932 175.089 680.899 168.204 680.516 160.173C680.133 142.962 679.368 125.752 678.986 108.541C678.986 104.716 680.133 103.187 683.194 101.274C696.201 93.2427 708.442 92.8603 722.214 100.127C734.838 106.629 748.61 111.218 761.617 116.573C763.529 116.955 765.06 118.103 767.355 118.867Z" fill="#858585"/>
<path d="M630.785 25.1649C644.557 13.3087 657.946 1.45252 672.101 -10.7861C682.429 1.07006 692.376 12.5438 702.322 24.0175C706.53 28.9895 711.121 33.9614 714.946 39.3158C716.094 40.8457 716.476 43.9053 715.711 45.4352C710.738 56.5264 705.765 67.2353 700.409 77.9441C699.644 79.8564 697.731 81.7687 696.201 82.5336C688.933 86.3581 681.664 89.4178 673.631 93.2424C659.094 70.2949 644.939 47.7299 630.785 25.1649Z" fill="#858585"/>
<path d="M704.231 407.623C703.849 407.623 702.701 407.24 701.936 406.858C690.077 402.651 678.218 398.061 666.359 393.854C662.916 392.707 662.151 391.177 662.533 387.735C664.064 374.732 665.211 361.345 666.359 348.342C666.359 347.577 666.359 346.43 666.741 346.047C673.245 338.398 679.748 330.749 686.251 323.482C687.017 322.717 689.312 323.1 690.459 323.482C703.084 326.924 716.09 330.749 728.714 334.191C735.218 336.103 737.513 341.075 735.6 347.195C729.862 364.405 724.124 381.233 718.003 398.444C716.09 403.416 709.97 407.623 704.231 407.623Z" fill="#858585"/>
<path d="M667.506 -22.6419C652.587 -9.25589 637.667 3.74767 623.13 16.7512C621.983 17.5162 620.453 17.8986 618.922 17.8986C612.419 17.5162 605.533 17.1337 599.03 16.3688C597.5 15.9863 595.204 14.4565 594.822 12.9267C590.996 -0.0769043 587.553 -13.4629 584.493 -26.4665C584.11 -27.9963 585.258 -30.6735 586.406 -31.8209C604.768 -45.5894 623.13 -58.9754 642.258 -72.7439C650.292 -56.2982 658.708 -39.8525 667.506 -22.6419Z" fill="#858585"/>
<path d="M659.472 178.913C648.761 199.948 638.05 219.836 628.868 240.106C623.513 251.962 616.627 258.082 603.237 258.847C597.117 259.229 595.204 257.699 593.291 252.345C586.788 232.074 579.902 212.187 573.016 192.299C571.486 188.474 572.634 186.944 576.076 185.032C584.11 180.825 592.526 178.913 601.707 178.913C620.452 179.295 639.197 178.913 659.472 178.913Z" fill="#858585"/>
<path d="M659.473 94.7717C646.849 97.4489 633.46 98.9787 621.218 103.186C606.682 108.158 596.735 103.951 586.406 94.0068C579.521 87.1225 576.843 81.3856 578.373 72.2067C579.903 61.4978 580.668 50.789 581.433 39.6977C581.816 33.9609 588.702 27.4591 594.823 27.8415C602.091 28.224 609.742 28.6065 617.01 29.3714C618.541 29.3714 620.453 30.5187 621.218 31.6661C634.225 51.9364 646.849 72.2067 659.856 92.8594C659.856 93.2418 659.473 93.6243 659.473 94.7717Z" fill="#858585"/>
<path d="M581.435 377.025C582.965 373.966 584.113 370.906 586.026 368.229C594.442 357.903 602.858 347.959 611.274 337.632C613.569 334.955 615.099 334.573 618.542 335.72C628.871 339.545 639.583 343.369 650.294 346.811C653.354 347.959 654.502 349.106 654.119 352.548C652.972 364.787 651.824 377.408 650.294 389.647C650.294 391.176 648.381 393.089 646.851 393.854C633.079 400.738 619.307 407.622 605.536 414.506C604.005 415.271 602.093 414.506 600.18 414.506L599.797 414.124C585.261 406.092 585.261 406.092 584.113 389.647C583.73 385.822 583.348 381.615 582.965 377.79C582.2 377.408 581.818 377.408 581.435 377.025Z" fill="#858585"/>
<path d="M517.289 477.624C517.48 474.078 517.272 470.74 518.039 467.327C522.081 453.6 526.3 440.213 530.343 426.486C531.509 422.866 532.933 421.698 537.058 420.851C549.612 418.652 562.566 416.245 575.344 413.499C579.07 412.86 580.797 413.257 581.982 416.52C586.414 428.007 591.023 439.834 595.057 451.529C595.761 452.887 594.642 455.621 593.395 457.129C582.171 470.701 570.947 484.273 559.724 497.845C558.477 499.353 556.126 499.71 554.127 500.746L553.551 500.613C534.664 501.357 534.664 501.357 525.896 487.378C523.736 484.19 521.4 480.662 519.241 477.474C518.265 477.549 517.865 477.756 517.289 477.624Z" fill="#858585"/>
<path d="M590.366 169.601C592.962 157.106 596.3 145.714 597.783 133.954C599.267 124.767 603.347 120.724 612.619 119.622C628.567 117.049 644.144 113.374 661.576 109.699C661.576 118.887 661.576 127.339 661.576 135.424C661.576 145.346 661.947 155.269 662.318 164.824C662.318 167.396 662.689 169.601 658.98 169.601C636.726 169.601 614.102 169.601 590.366 169.601Z" fill="#858585"/>
<path d="M571.104 95.5374C577.99 101.657 584.876 107.394 591.379 113.513C592.527 114.66 592.91 116.955 592.527 118.867C589.084 134.548 586.024 150.229 582.198 165.91C581.816 167.822 579.903 169.734 577.99 171.264C568.809 177.383 559.245 178.913 548.916 173.941C541.648 170.499 533.232 168.587 525.581 166.292C521.755 165.145 520.99 163.232 520.608 159.79C517.93 142.58 525.198 131.106 538.97 121.927C550.447 113.895 560.393 104.334 571.104 95.5374Z" fill="#858585"/>
<path d="M632.312 258.464C646.466 230.927 659.855 204.538 673.627 177.383C681.278 180.825 687.781 183.502 690.077 192.681C693.902 207.597 698.875 221.748 703.466 236.282C704.231 239.341 704.614 241.254 702.318 243.931C693.52 253.492 685.486 263.819 676.688 273.38C675.54 274.91 672.862 276.44 671.332 275.675C658.325 270.32 645.701 264.584 632.312 258.464Z" fill="#858585"/>
<path d="M755.11 261.524C747.077 282.177 739.426 302.064 731.775 322.717C728.715 321.952 725.654 321.187 722.594 320.422C713.03 317.745 703.466 315.068 693.903 312.008C691.607 311.243 690.077 308.184 688.164 306.271V305.889C686.252 299.005 681.661 292.121 682.809 286.001C683.956 280.264 690.842 275.292 695.05 270.32C700.406 264.201 705.379 258.082 710.735 251.962C711.882 250.433 714.943 249.668 716.473 250.05C729.097 253.492 741.721 257.317 755.11 261.524Z" fill="#858585"/>
<path d="M600.945 271.085C613.186 268.025 625.045 265.73 636.904 272.997C646.085 278.351 656.032 281.793 665.595 286.383C667.891 287.53 670.186 290.207 670.951 292.502C673.629 299.386 677.837 307.036 676.689 313.537C675.542 320.039 667.508 325.011 663.683 331.131C659.857 336.485 656.032 337.25 650.293 334.573C640.73 330.748 630.783 327.688 620.837 324.246C618.924 323.481 616.629 321.951 616.247 320.422C611.273 305.506 606.683 290.207 601.71 275.292C601.71 274.144 601.327 272.614 600.945 271.085Z" fill="#858585"/>
<path d="M535.53 302.064C553.51 292.885 571.107 283.706 589.47 274.145C591.383 279.882 593.295 285.619 594.825 290.973C597.503 299.387 599.416 308.184 602.859 316.215C605.919 323.482 604.772 328.836 599.416 334.573C591.765 342.987 584.497 351.784 576.846 361.345C562.691 341.075 549.302 321.952 535.53 302.064Z" fill="#858585"/>
<path d="M680.13 -19.5833C692.754 -24.9378 703.848 -30.6746 715.707 -34.4992C720.298 -36.029 726.419 -33.7343 732.157 -33.3518C738.278 -32.9694 740.956 -29.9097 742.103 -23.7904C745.164 -9.63945 749.372 4.12904 752.815 17.8975C753.197 19.4274 753.58 21.3396 753.962 23.6344C745.164 26.6941 736.747 29.7537 728.331 32.8134C727.184 33.1958 724.506 32.4309 723.741 31.666C709.586 14.8379 695.05 -1.99029 680.13 -19.5833Z" fill="#858585"/>
</g>
<path fill-rule="evenodd" clip-rule="evenodd" d="M184.994 259H195.012V269.023H184.994V259ZM209.977 414.374L219.994 424.396V478H209.977V414.374ZM174.977 478H184.994V413.887L204.988 402.281L224.983 422.286V477.959H235V404.026L195.012 363.976V274.014H165V284.037H174.977V478Z" fill="#6A6969"/>
<defs>
<clipPath id="clip0_2_5319">
<rect width="400" height="478" fill="white" transform="translate(288)"/>
</clipPath>
</defs>
</svg>
