<svg width="16" height="16" viewBox="0 0 16 16" fill="none" xmlns="http://www.w3.org/2000/svg">
<g clip-path="url(#clip0_2466_507)">
<path d="M0.634747 3.27621H3.07435L5.54998 11.1612C5.63314 11.4259 5.87834 11.6058 6.15573 11.6058H13.885C14.2355 11.6058 14.5197 11.3216 14.5197 10.971C14.5197 10.6205 14.2355 10.3363 13.885 10.3363H6.62174L6.12624 8.7582H14.0595C14.6157 8.7582 15.125 8.34859 15.2439 7.80513L15.9748 4.47098C16.0423 4.16295 15.9727 3.8514 15.7836 3.61623C15.5945 3.38136 15.3051 3.24645 14.9895 3.24645H4.39587L4.14611 2.45129C4.06295 2.18659 3.81775 2.00671 3.54062 2.00671H0.634747C0.284195 2.00671 0 2.29091 0 2.64146C0 2.99201 0.284195 3.27621 0.634747 3.27621ZM14.0207 7.48897L5.76942 7.49114C5.76155 7.4887 5.74882 7.48031 5.74369 7.48031C5.74206 7.48031 5.74126 7.48141 5.74152 7.48384L5.46329 6.63722H14.2055L14.0207 7.48897ZM4.79438 4.51621H14.666L14.4812 5.36769H5.06178H5.04635L4.76649 4.51621H4.79438Z" fill="white"/>
<path d="M6.99853 13.9936C7.49603 13.9936 7.89934 13.5903 7.89934 13.0928C7.89934 12.5953 7.49603 12.192 6.99853 12.192C6.50102 12.192 6.09772 12.5953 6.09772 13.0928C6.09772 13.5903 6.50102 13.9936 6.99853 13.9936Z" fill="white"/>
<path d="M12.5775 13.9936C13.075 13.9936 13.4783 13.5903 13.4783 13.0928C13.4783 12.5953 13.075 12.192 12.5775 12.192C12.08 12.192 11.6767 12.5953 11.6767 13.0928C11.6767 13.5903 12.08 13.9936 12.5775 13.9936Z" fill="white"/>
</g>
<defs>
<clipPath id="clip0_2466_507">
<rect width="16" height="16" fill="white"/>
</clipPath>
</defs>
</svg>
